<?xml version="1.0" encoding="utf-8"?>
<!-- Generator: Adobe Illustrator 22.0.0, SVG Export Plug-In . SVG Version: 6.00 Build 0)  -->
<svg version="1.1" id="Layer_1" xmlns="http://www.w3.org/2000/svg" xmlns:xlink="http://www.w3.org/1999/xlink" x="0px" y="0px"
	 viewBox="0 0 2000 2000" style="enable-background:new 0 0 2000 2000;" xml:space="preserve">
<style type="text/css">
	.st0{fill:#00A99D;}
</style>
<g>
	<path class="st0" d="M1479.2,847.5c-33.3-34.4-76.4-53.8-121.1-54.5c-46.5-0.7-91.2,17.5-125.8,51.3
		c-39.8,38.8-62.9,95.3-63.3,154.8c-0.5,55.7,18.3,108.2,52.8,147.7c34.8,39.8,81.6,62,131.8,62.5c0.5,0,1.1,0,1.6,0
		c47.9,0,93.6-21.2,128.7-59.7c35.2-38.6,55-89.4,56-143C1540.9,946.4,1518.8,888.4,1479.2,847.5z M1343.3,988.3
		c1.9-1.2,5.5-1.4,7.1-0.1c1.5,1.3,1.3,5.1,1.9,7.8c0.1,0.3-0.1,0.7-0.2,0.9c-10.7,21.4-6.6,40.9,3.2,61.6c4.9,10.3,4.8,23.8,5.8,36
		c0.4,5.1-1.4,11-3.4,15.9c-6,14.6-19,16.8-28.5,4.8c-6.1-7.7-11.3-16.4-17.4-24.2c-8.9-11.3-14.2-12.3-26.8-7.2
		c-8.9,3.6-17.8,7.5-27.1,9.3c-12.6,2.3-23.5-3.6-34.9-14.2c26.1,0.8,44.7-12.4,61.4-29.4c16-16.3,31-33.9,46.7-50.7
		C1334.6,994.8,1338.9,991.2,1343.3,988.3z M1433.9,1024.4c1.8-2.2,7-0.9,10.7-1.2c-1.2,3.5-1.5,8-3.7,10.3
		c-11.6,12-23.6,23.5-35.5,35.2c-0.8-0.7-1.6-1.5-2.5-2.2C1413.2,1052.4,1423.1,1038,1433.9,1024.4z M1455.1,1018.7
		c-10.2-8.8-16.3-8.7-26.6-0.4c-18.2,14.8-22.3,14.2-36.7-5.6c-8.4-11.6-16.1-23.8-25-34.8c-10.9-13.6-20.4-14.6-33.2-3
		c-10.8,9.7-20.4,21.1-30.8,31.4c-10.8,10.7-21.3,22.1-33.2,31.1c-17.2,12.9-28.2,6.6-31.6-16.3c-7.7-52.2,15.1-106.5,56.1-133.8
		c41.8-27.8,94.4-24.6,131.5,8.8c36.8,33.1,51,76.5,44.2,128.9c-0.2,1.5-0.6,3-1.4,6.8C1463.3,1026.6,1459.4,1022.3,1455.1,1018.7z"
		/>
	<path class="st0" d="M426.5,1200.5H94.6v-93.8l199.1-211.2H94.6V802h331.8v97.2l-199,207.8h199V1200.5z"/>
	<path class="st0" d="M746.8,1046.2H495.6v-92.5h251.2V1046.2z M770.2,1200.5H495.6v-92.5h274.6V1200.5z M790.6,802l-44.3,92.5
		H497.1V802H790.6z"/>
	<path class="st0" d="M1125.4,1200.5H849.3V802h99.5v305h176.6V1200.5z"/>
	<path class="st0" d="M1905.4,1075.9c0,37.1-9.6,66.7-28.9,88.9c-20.2,23.8-48.6,35.7-85.1,35.7h-213.9v-89.5H1776
		c10.6,0,19.4-2.3,26.4-7c8.3-5.6,12.4-13.4,12.4-23.4c0-12.6-7.6-21.7-22.9-27.4c-5.3-2-10.6-3.1-15.9-3.5c-4.6,0-11.9,0-21.9,0
		h-41.3c-29.5,0-50.6-2.2-63.2-6.5c-24.2-8.3-42.6-23.9-55.2-46.8c-11.3-20.2-16.9-43.9-16.9-71.1c0-36.1,9.6-65.3,28.9-87.6
		c20.2-23.9,48.1-35.8,83.6-35.8h215.4l-44.3,92.5h-160.2c-22.6,0-33.8,10.4-33.8,31.3c0,9.1,3.4,16.6,10.2,22.5
		c6.8,5.9,14.7,8.8,23.6,8.8h90.5C1867.4,957.2,1905.4,996.8,1905.4,1075.9z"/>
	<g>
		<path class="st0" d="M1104.2,825.3c-2.6,0-5.2-0.4-7.9-0.6c-2.1-0.2-4.2-0.2-6.3-0.5c-2.3-0.3-4.7-0.3-6.8-1
			c-3.9-1.4-7.8-2.2-11.9-1.8c-4.1,0.4-7.9-0.5-11.7-1.7c-4.8-1.5-9.7-3-14.5-4.5c-0.3-0.1-0.7-0.2-1-0.4c-4.3-3-8.9-5.3-14.5-5.1
			c0-0.5,0-0.9,0.1-1.2c2.5-5.7-0.6-10-4.4-13.2c-5.1-4.4-14.7-6.8-22.6-2.4c-3.7,2-4,6-5.3,9.4c0,0.1,0,0.2,0,0.2
			c0.8,2.2-0.4,2.6-2.2,2.6c-1.5,0.1-3,0.9-2,2.5c1.9,2.9,1.3,6,1.4,9c0.1,4.8,0,4.9,4.5,6.5c1,0.4,1.9,1.3,2.8,2
			c-0.2,0.2-0.3,0.4-0.5,0.7c-1.1-0.2-2.2-0.4-3.2-0.7c-2-0.6-4-1.7-6,0.2c-0.2,0.2-0.7,0.1-1-0.1c-3.4-2.3-7.2-4.2-10.1-7
			c-2.2-2-4.2-4.1-7-5.2c-8.2-3.3-15.2-9-23.7-11.4c-0.3-0.1-0.6-0.2-0.8-0.4c-1.5-2.4-4.2-2.7-6.5-3.8c-1.8-0.8-3.4-1.3-4,1.5
			c-0.1,0.5-0.8,1-1.4,1.4c-1.9,1.4-3.1,2.9-1.8,5.4c0.3,0.5,0.2,1.1,0,1.5l13,6.5c-0.2-1-0.3-2-0.5-3c3,0.8,6.2,0.3,8.3,3.4
			c2.3,3.4,4.9,6.6,7.7,9.6c1.5,1.6,3.6,2.7,5.7,3.4c3.5,1.3,7.1,2.3,9.9,5.1c0.8,0.8,1.9,1.4,2.8,2.1c3.9,2.9,7.8,5.9,11.8,8.9
			c-1.4,2.4-2,4.3,0.2,5.9c0.1,0.1,0.1,0.3,0.1,0.4c0.2,6.7,4.2,12.4,5.3,18.9c0.4,2.5,1.8,4.9,2.8,7.5c-0.7,0.3-1.6,0.6-2.4,1
			c-3.6,1.6-5.6,5-5.5,9c0,0.7-0.2,1.6-0.6,2.2c-1.5,2.2-0.9,4.6,1.6,5.8c0.7,0.4,1.5,1.2,1.6,1.9c1,5.1,1.9,10.3,2.8,15.4
			c0.2,1.2-0.1,1.9-1.2,2.5c-1.8,1.1-3.5,2.4-5.2,3.7c-1,0.8-2.8,1.4-1.8,3.4c0.1,0.2-0.4,0.9-0.8,1.2c-4.5,4.2-8.9,8.5-13.7,12.5
			c-4.9,4.1-5.8,5.6-3.7,11.8c1.9,5.7,1.7,11.4,1.7,17.2c0,7.1,0,14.1,0.1,21.2c0.1,5.2-0.7,10.1-2.6,14.9c-0.3,0.9-1.6,1.4-2.4,2.1
			c-0.7,0.6-1.5,1.3-2.2,2c-0.7,0.7-1.2,1.7-2.1,2.3c-2.4,1.6-5,3.1-7.5,4.5c-1,0.5-2.2,0.8-3.4,0.8c-1.4,0.1-2.7-0.1-4.7-0.3
			c0.2-0.3,0.3-0.6,0.5-1l-6.8,1l4.1,6.6c0-0.2,0-0.5,0.1-0.8c5.8,4.3,11.8,4.7,18.1,4c3.9-0.4,7.6,0.2,11.2,1.8
			c1.3,0.6,2.7,1.1,4.2,1.4c4.7,0.9,8.1-3,7.1-7.6c-0.5-2.2-0.8-4.5-1-6.7c-0.1-0.6,0.5-1.4,1.1-1.8c1-0.8,2.3-1.2,3-2.1
			c0.7-0.8,0.7-2.2,1-3.3c-1.2-0.1-2.3-0.3-3.5-0.3c-0.5,0-1,0.4-2.1,0.9c1.9-8.6,3.1-16.7,5.4-24.5c2.8-9.2,2.9-18.1-0.5-27
			c-0.2-0.5-0.1-1.5,0.2-1.7c3.5-2.5,7.2-4.7,11.9-6.2c4.7,65-12.2,121.2-62.2,165.2c0.1,0.2,0.3,0.4,0.4,0.6
			c0.8-0.4,1.7-0.6,2.4-1.1c9.6-8,18.2-16.9,25.6-27c23.2-31.4,34.7-66.9,36.7-105.6c0.5-10.2-0.5-20.4-0.8-30.6c0-1-0.4-2,1-2.5
			c4.2-1.5,8.4-3.2,12.6-4.8c0.5-0.2,1.1-0.3,1.8-0.5c0.4,1,0.7,1.9,1,2.8c2.2,5.7,4.8,11.3,6.5,17.1c1.3,4.4,3.2,8.2,6,11.6
			c2.5,3,5.8,4,9.6,3.8c1-0.1,2.1-0.4,3.1-0.3c6.8,0.6,13.6,1.4,20.2,3.6c5.9,1.9,11.9,3.7,18.1,4.9c13,2.5,25,7.5,36.3,14.2
			c0.3,0.2,0.5,0.5,0.9,0.7c-0.2,0.3-0.5,0.5-0.6,0.8c-0.1,0.5-0.2,1-0.4,1.5c-0.1,0.5-0.2,1-0.3,1.5c0.4,0.1,0.9,0.1,1.3,0.2
			c0.4,0.1,0.9,0.1,1.3,0.3c0.8,0.2,1.5,0.7,2.2,1.2c0.7,0.5,1.6,1.8,2.1,1.6c2.1-0.6,3.1,0.6,4.1,1.9c1.6,2,3.2,4.1,4.7,6.1
			c2.9,3.7,5.8,7.5,10,9.9c3.6,2.1,5.6,1.4,7.6-2.2c2.6-4.9,2.5-10,0.2-14.9c-2.3-4.8-5.3-9.4-7.7-13.7c-1.3-0.7-2.5-0.9-3.1-1.7
			c-1.6-2.1-3-4.3-4.3-6.6c-2.9-5.4-7.5-7.1-13-4.8c-4,1.6-5.6,1.2-8.4-2.3c-1.9-2.4-4.2-2.9-5.9-1.6c-9.4-5.1-18.8-10-28-15.1
			c-7.8-4.4-16-5.7-24.7-3.3c-5.6,1.5-8.6-3.1-8.9-7.6c-0.4-5.2,0.1-10.5,0.1-15.7c0-1.7,0.3-2.8,2.2-3.4c2.4-0.8,4-2.7,4.4-5.3
			c0.4-2.4-1.5-3-3.1-4c4.1-3.8,3.6-8.9,4-13.7c1.3,1.2,2.5,2.1,3.4,3.2c0.7,0.9,1.3,2.3,1.2,3.4c-0.7,5.1,1.9,8.8,4.8,12.3
			c0.4,0.4,1.4,0.8,1.9,0.6c2.7-1.3,3.7-3.7,4.4-6.5c0.5-2.2-0.6-3.3-2-4.5c-0.7-0.6-1.3-1.3-2.2-2.3c3.6-0.2,4.8-1.5,5.5-5.2
			c0.8-4.3,0.3-6.1-2.4-7.3c1.1-4.3-0.2-8.2-2.7-11.7c-0.6-0.9-1.6-2-1.5-2.9c0.3-2.3-1.2-3-2.7-3.4c-3.1-0.8-6.3-1.4-9.5-2
			c-1.2-0.2-1.8-0.5-2-1.8c-0.2-1.4-0.6-2.7-1.1-4c-1.1-2.8-3-3.5-5.6-2c-1.4,0.8-2.7,1.7-4.3,2.6c-0.8-1.5-2.5-3.3-2.1-4.2
			c1.4-2.9,0.4-5-0.9-7.3c-0.1-0.1,0-0.3,0-0.4c0.4-2.7-0.7-4.9-2-7c-1.6-2.5-1.7-5.1-0.2-7.7c1.5-2.6,3-5.3,4.6-7.8
			c0.6-0.9,1.5-1.7,2.4-2.1c5.5-2.3,11-2.5,16.3,0.4c3.5,1.9,7.3,2.4,11.1,1.9c7.1-1,14.2-2.2,21.4-3.2c0.8-0.1,1.9-0.3,2.4,0.1
			c3.2,2.5,6.7,4.3,10.8,4.6c1.4,0.1,1.9,1,1.7,2.3c-0.1,0.7-0.4,1.3-0.4,1.9c0,0.3,0.1,0.6,0.2,0.9c0.1,0.3,0.2,0.6,0.3,0.8
			c0.1,0,0.1-0.1,0.2-0.1c0.5-0.2,1.1-0.3,1.5-0.6c2.6-2.6,2.5-6.2,3-9.5c0.1-1-1.1-2.2-1.7-3.3c-0.2-0.3-0.3-0.7-0.4-1
			C1112.3,828.3,1108.1,825.2,1104.2,825.3z M1010.7,905.8c0.2,0.6-0.4,1.9-1,2.3c-2,1.2-4.2,2.1-6.5,3.1
			c-1.1-5.9-2.3-11.5-3.1-17.3c-0.1-0.8,1.6-1.9,2.7-3C1006.3,895.8,1009.2,900.4,1010.7,905.8z M997.7,881.2
			c0.9-1.4,1.5-2.4,2.1-3.4c0.2,0.1,0.4,0.3,0.7,0.4C1000.2,879.5,1000.5,881.1,997.7,881.2z M1056.8,922.7c0.1,0.4-0.4,1-0.8,1.3
			c-1,0.8-1.9,2-3.1,2.2c-0.5,0.1-1.4-1.6-2.2-2.5c1.2-1.2,2.1-2.3,3.2-3.1c0.4-0.3,1.5-0.2,2,0.2
			C1056.4,921.2,1056.7,922,1056.8,922.7z M1072.2,906c0.8-1.6,1.1-3.4,1.6-5.1c1.4,2.7,1.1,5.1-0.4,7.6
			C1071.9,908.1,1071.5,907.5,1072.2,906z M1051.3,874.3c0.9,0.6,2.1,2.6,1.8,3.2c-1.2,2-2.9,0.2-4.5,0
			C1049,874.6,1049.9,873.4,1051.3,874.3z M1071.6,914.1c2.6,2.5,2.6,4.3,0.1,7.1c-0.9,1-1.7,1-2.2-0.2c-1.2-2.6-2.3-5.2-3.6-8
			c1.5,0.1,2.4,0.1,3.2,0.2C1070,913.4,1071,913.5,1071.6,914.1z"/>
	</g>
</g>
</svg>
